[img]http://img706.imageshack.us/img706/6803/hellinthecell.jpg[/img]


                                                               
¦¦¦¦¦¦¦¦¦¦¦¦¦¦¦¦¦¦¦¦¦¦¦¦¦¦¦¦¦¦¦¦¦¦¦¦¦¦¦¦¦¦¦¦¦¦¦¦¦¦¦¦¦¦¦¦¦¦¦¦¦¦¦
¦¦¦¦¦¦¦¦¦¦¦¦¦¦¦¦¦¦¦¦¦¦¦¦¦¦¦¦¦¦¦¦¦¦¦¦¦¦¦¦¦¦¦¦¦¦¦¦¦¦¦¦¦¦¦¦¦¦¦¦¦¦¦
¦¦-----------------------------------------------------------¦¦
¦¦                                                           ¦¦
¦¦                         ########                          ¦¦
¦¦                       ############                        ¦¦
¦¦                      ##############                       ¦¦
¦¦                     ################                      ¦¦
¦¦                     ################                      ¦¦
¦¦#                   ##################                    #¦¦
¦¦##                  ##################                   ##¦¦
¦¦##                  ##################                  ###¦¦
¦¦###                 ##################                 ####¦¦
¦¦####                #####  ####  #####                #### ¦¦
¦¦ ####               ####   ###    ####               ##### ¦¦
¦¦ #####              ###    ###    ####              #####  ¦¦
¦¦  #####             ###    ####   ###              ######  ¦¦
¦¦  ######            #################             ######   ¦¦
¦¦   #####            ######## ########            ######    ¦¦
¦¦    #####            #######  #######           #######    ¦¦
¦¦    #######           ##############           #######     ¦¦
¦¦     #######            #########             #######      ¦¦
¦¦      #######          ############          #######       ¦¦
¦¦       #######         ############         #######        ¦¦
¦¦        #######        ############        #######         ¦¦
¦¦         #######       ##       ###      ########          ¦¦
¦¦          ########     ###########      ########           ¦¦
¦¦           ########    ###########     ########            ¦¦
¦¦            #########   #########    #########             ¦¦
¦¦             ##########  #######   #########               ¦¦
¦¦               #########          #########                ¦¦
¦¦                ##########      ##########                 ¦¦
¦¦                  ##########  ##########                   ¦¦
¦¦           ###     ###################     ###             ¦¦
¦¦          ####      ################       ####            ¦¦
¦¦            ###       ##############      ####             ¦¦
¦¦             ###   ####################  ####              ¦¦
¦¦             ############## ################               ¦¦
¦¦     ###################### #######################        ¦¦
¦¦     ###################        ######### #########        ¦¦
¦¦     ######### ## ##                ##### #########        ¦¦
¦¦      ####      ###                    ###     ####        ¦¦
¦¦        ##      ####  #            #  ###       ##         ¦¦
¦¦                 ######            ######                  ¦¦
¦¦                  #####            #####                   ¦¦
¦¦                                                           ¦¦
¦¦¦¦¦¦¦¦¦¦¦¦¦¦¦¦¦¦¦¦¦¦¦¦¦¦¦¦¦¦¦¦¦¦¦¦¦¦¦¦¦¦¦¦¦¦¦¦¦¦¦¦¦¦¦¦¦¦¦¦¦¦¦
¦¦¦¦¦¦¦¦¦¦¦¦¦¦¦¦+¦¦¦¦¦¦¦¦¦¦¦¦¦¦¦¦¦¦¦¦¦¦¦¦¦¦¦¦¦¦+¦¦¦¦¦¦¦¦¦¦¦¦¦¦¦
¦¦¦¦¦¦¦¦¦¦¦¦¦¦¦¦¦  RANA TAIMOOR ALI'S Release  ¦¦¦¦¦¦¦¦¦¦¦¦¦¦¦¦
¦¦¦¦¦¦¦¦¦¦¦¦¦¦¦¦+¦¦¦¦¦¦¦¦¦¦¦¦¦¦¦¦¦¦¦¦¦¦¦¦¦¦¦¦¦¦+¦¦¦¦¦¦¦¦¦¦¦¦¦¦¦
¦¦¦¦¦¦¦¦¦¦¦¦¦¦¦¦¦¦¦¦¦¦¦¦¦¦¦Presents¦¦¦¦¦¦¦¦¦¦¦¦¦¦¦¦¦¦¦¦¦¦¦¦¦¦¦¦
¦¦¦¦¦¦¦¦¦¦¦¦¦¦¦¦¦¦¦¦¦¦ ¦ Ripper's Note  ¦¦¦¦¦¦¦¦¦¦¦¦¦¦¦¦¦¦¦¦¦¦¦




Release : WWE HELL IN THE CELL 2011 BY !TAIMOOR!

Release Date: Sunday, October 2nd 8pm EDT
  
Release Length: 2h 38mn

Total Size : 1.26 GB





Matches
Divas Champion Kelly Kelly vs. Beth Phoenix
WWE Championship Triple Threat Hell in a Cell Match (John Cena vs. CM Punk vs. Alberto Del Rio)
World Heavyweight Championship Hell in a Cell Match (Mark Henry VS. Randy Orton)
Sin Cara vs. Sin Cara
Sheamus vs. Christian

Disk 1

Video

ID                               : 1
Format                           : MPEG-4 Visual
Format profile                   : Advanced Simple@L5
Format settings, BVOP            : Yes
Format settings, QPel            : No
Format settings, GMC             : No warppoints
Format settings, Matrix          : Default (H.263)
Codec ID                         : XVID
Codec ID/Hint                    : XviD
Duration                         : 1h 43mn
Bit rate                         : 1 002 Kbps
Width                            : 640 pixels
Height                           : 368 pixels
Display aspect ratio             : 16:9
Frame rate                       : 25.000 fps
Color space                      : YUV
Chroma subsampling               : 4:2:0
Bit depth                        : 8 bits
Scan type                        : Progressive
Compression mode                 : Lossy
Bits/(Pixel*Frame)               : 0.170
Stream size                      : 741 MiB (87%)
Title                            : !Taimoor!
Writing library                  : XviD 1.1.2 (UTC 2006-11-01)
Language                         : English

Audio

ID                               : 2
Format                           : MPEG Audio
Format version                   : Version 1
Format profile                   : Layer 3
Mode                             : Joint stereo
Mode extension                   : MS Stereo
Muxing mode                      : Header stripping
Codec ID                         : A_MPEG/L3
Codec ID/Hint                    : MP3
Duration                         : 1h 43mn
Bit rate mode                    : Constant
Bit rate                         : 128 Kbps
Channel(s)                       : 2 channels
Sampling rate                    : 44.1 KHz
Compression mode                 : Lossy
Stream size                      : 94.7 MiB (11%)
Title                            : !Taimoor!
Language                         : English

Disk 2

Video
ID                               : 1
Format                           : MPEG-4 Visual
Format profile                   : Advanced Simple@L5
Format settings, BVOP            : Yes
Format settings, QPel            : No
Format settings, GMC             : No warppoints
Format settings, Matrix          : Default (H.263)
Codec ID                         : XVID
Codec ID/Hint                    : XviD
Duration                         : 54mn 9s
Bit rate                         : 1 003 Kbps
Width                            : 640 pixels
Height                           : 368 pixels
Display aspect ratio             : 16:9
Frame rate                       : 25.000 fps
Color space                      : YUV
Chroma subsampling               : 4:2:0
Bit depth                        : 8 bits
Scan type                        : Progressive
Compression mode                 : Lossy
Bits/(Pixel*Frame)               : 0.170
Stream size                      : 388 MiB (87%)
Title                            : !Taimoor!
Writing library                  : XviD 1.1.2 (UTC 2006-11-01)
Language                         : English


Audio
ID                               : 2
Format                           : MPEG Audio
Format version                   : Version 1
Format profile                   : Layer 3
Mode                             : Joint stereo
Mode extension                   : MS Stereo
Muxing mode                      : Header stripping
Codec ID                         : A_MPEG/L3
Codec ID/Hint                    : MP3
Duration                         : 54mn 9s
Bit rate mode                    : Constant
Bit rate                         : 128 Kbps
Channel(s)                       : 2 channels
Sampling rate                    : 44.1 KHz
Compression mode                 : Lossy
Stream size                      : 49.6 MiB (11%)
Title                            : !Taimoor!
Language                         : English



SCREENSHOT

 
[img]http://img821.imageshack.us/img821/2038/47260439.jpg[/img]
[img]http://img196.imageshack.us/img196/4356/59450951.jpg[/img]
[img]http://img21.imageshack.us/img21/1929/capturesmi.jpg[/img]